<?xml version="1.0" encoding="UTF-8" standalone="no"?>
<!-- Created with Inkscape (http://www.inkscape.org/) -->

<svg
   width="46.030254mm"
   height="49.753563mm"
   viewBox="0 0 46.030254 49.753563"
   version="1.1"
   id="svg1"
   xml:space="preserve"
   xmlns="http://www.w3.org/2000/svg"
   xmlns:svg="http://www.w3.org/2000/svg"><defs
     id="defs1" /><g
     id="layer1"
     transform="translate(-73.073061,-59.248064)"><path
       id="rect1"
       style="fill:#ffffff;stroke-width:0.201512"
       d="m 75.069836,59.248063 c -1.106179,0 -1.996777,0.890598 -1.996777,1.996777 v 3.602365 c 0,1.106179 0.890598,1.996777 1.996777,1.996777 h 2.756421 v 3.934643 0.56224 33.725595 c 0,2.17979 1.686423,3.93516 3.781682,3.93516 h 28.960501 c 2.09526,0 3.78169,-1.75537 3.78169,-3.93516 v -33.725595 -0.56224 -3.934643 h 2.75642 c 1.10618,0 1.99677,-0.890598 1.99677,-1.996777 V 61.24484 c 0,-1.106179 -0.89059,-1.996777 -1.99677,-1.996777 z m 9.485726,17.755506 h 1.898592 c 0.63122,0 1.139466,0.50773 1.139466,1.138948 v 19.560046 c 0,0.63122 -0.508246,1.139466 -1.139466,1.139466 h -1.898592 c -0.631218,0 -1.139465,-0.508246 -1.139465,-1.139466 V 78.142517 c 0,-0.631218 0.508247,-1.138948 1.139465,-1.138948 z m 10.583334,0 h 1.898592 c 0.631218,0 1.139465,0.50773 1.139465,1.138948 v 19.560046 c 0,0.63122 -0.508247,1.139466 -1.139465,1.139466 h -1.898592 c -0.63122,0 -1.139466,-0.508246 -1.139466,-1.139466 V 78.142517 c 0,-0.631218 0.508246,-1.138948 1.139466,-1.138948 z m 10.583334,0 h 1.89859 c 0.63122,0 1.13947,0.50773 1.13947,1.138948 v 19.560046 c 0,0.63122 -0.50825,1.139466 -1.13947,1.139466 h -1.89859 c -0.63122,0 -1.13947,-0.508246 -1.13947,-1.139466 V 78.142517 c 0,-0.631218 0.50825,-1.138948 1.13947,-1.138948 z" /></g></svg>
